<svg width="314" height="78" viewBox="0 0 314 78" fill="none" xmlns="http://www.w3.org/2000/svg">
<path d="M9.37793 39.603H3.35156L3.31934 36.0903H8.29834C9.1792 36.0903 9.89355 35.9829 10.4414 35.7681C11 35.5532 11.4082 35.2417 11.666 34.8335C11.9238 34.4146 12.0527 33.8989 12.0527 33.2866C12.0527 32.5884 11.9238 32.0244 11.666 31.5947C11.4082 31.165 11 30.8535 10.4414 30.6602C9.89355 30.4561 9.18457 30.354 8.31445 30.354H5.25293V49.7383H0V26.2773H8.31445C9.72168 26.2773 10.9785 26.4062 12.085 26.6641C13.1914 26.9219 14.1313 27.3193 14.9048 27.8564C15.689 28.3936 16.2852 29.0649 16.6934 29.8706C17.1016 30.6763 17.3057 31.627 17.3057 32.7227C17.3057 33.6787 17.0908 34.5703 16.6611 35.3975C16.2422 36.2246 15.5654 36.896 14.6309 37.4116C13.6963 37.9272 12.4448 38.2065 10.8765 38.2495L9.37793 39.603ZM9.16846 49.7383H2.01416L3.91553 45.6777H9.16846C9.97412 45.6777 10.6294 45.5488 11.1343 45.291C11.6392 45.0332 12.0098 44.6841 12.2461 44.2437C12.4824 43.8032 12.6006 43.3091 12.6006 42.7612C12.6006 42.1167 12.4878 41.5581 12.2622 41.0854C12.0474 40.6128 11.7036 40.2476 11.231 39.9897C10.769 39.7319 10.1514 39.603 9.37793 39.603H4.67285L4.70508 36.0903H10.4575L11.6821 37.4761C13.1753 37.4438 14.3677 37.6855 15.2593 38.2012C16.1616 38.7061 16.8115 39.3721 17.209 40.1992C17.6064 41.0264 17.8052 41.9019 17.8052 42.8257C17.8052 44.3511 17.4775 45.6294 16.8223 46.6606C16.167 47.6812 15.1948 48.4492 13.9058 48.9648C12.6274 49.4805 11.0483 49.7383 9.16846 49.7383Z" fill="#657582"/>
<path d="M30.9536 30.7407L24.895 49.7383H19.2876L27.9727 26.2773H31.5176L30.9536 30.7407ZM35.981 49.7383L29.9062 30.7407L29.2778 26.2773H32.8711L41.5884 49.7383H35.981ZM35.7231 41.0049V45.0654H23.4932V41.0049H35.7231Z" fill="#657582"/>
<path d="M55.7036 43.5508C55.7036 43.1533 55.6445 42.7988 55.5264 42.4873C55.4082 42.165 55.1934 41.8696 54.8818 41.6011C54.5703 41.3325 54.1299 41.064 53.5605 40.7954C52.9912 40.5161 52.2446 40.2314 51.3208 39.9414C50.2681 39.5977 49.2637 39.2109 48.3076 38.7812C47.3623 38.3408 46.519 37.8306 45.7778 37.2505C45.0366 36.6704 44.4512 35.9937 44.0215 35.2202C43.6025 34.4468 43.3931 33.5444 43.3931 32.5132C43.3931 31.5142 43.6133 30.6118 44.0537 29.8062C44.4941 29.0005 45.1118 28.313 45.9067 27.7437C46.7017 27.1636 47.6362 26.7231 48.7104 26.4224C49.7847 26.1108 50.9663 25.9551 52.2554 25.9551C53.9741 25.9551 55.4834 26.2612 56.7832 26.8735C58.0938 27.4751 59.1143 28.3237 59.8447 29.4194C60.5752 30.5044 60.9404 31.7666 60.9404 33.2061H55.7197C55.7197 32.5723 55.5854 32.0137 55.3169 31.5303C55.0591 31.0361 54.6616 30.6494 54.1245 30.3701C53.5981 30.0908 52.9375 29.9512 52.1426 29.9512C51.3691 29.9512 50.7192 30.0693 50.1929 30.3057C49.6772 30.5312 49.2852 30.8428 49.0166 31.2402C48.7588 31.6377 48.6299 32.0728 48.6299 32.5454C48.6299 32.9214 48.7266 33.2651 48.9199 33.5767C49.124 33.8774 49.4141 34.1621 49.79 34.4307C50.1768 34.6885 50.6494 34.9355 51.208 35.1719C51.7666 35.4082 52.4058 35.6338 53.1255 35.8486C54.3823 36.2461 55.4941 36.6865 56.4609 37.1699C57.4385 37.6533 58.2603 38.2012 58.9263 38.8135C59.5923 39.4258 60.0918 40.1187 60.4248 40.8921C60.7686 41.6655 60.9404 42.541 60.9404 43.5186C60.9404 44.5605 60.7363 45.4844 60.3281 46.29C59.9307 47.0957 59.3506 47.7832 58.5879 48.3525C57.8359 48.9111 56.9336 49.3354 55.8809 49.6255C54.8281 49.9155 53.6519 50.0605 52.3521 50.0605C51.1704 50.0605 50.0049 49.9102 48.8555 49.6094C47.7061 49.2979 46.6641 48.8252 45.7295 48.1914C44.8057 47.5576 44.0645 46.752 43.5059 45.7744C42.958 44.7861 42.6841 43.6152 42.6841 42.2617H47.937C47.937 42.9707 48.0391 43.5723 48.2432 44.0664C48.4473 44.5498 48.7373 44.9419 49.1133 45.2427C49.5 45.5435 49.9673 45.7583 50.5151 45.8872C51.063 46.0161 51.6753 46.0806 52.3521 46.0806C53.1362 46.0806 53.77 45.9731 54.2534 45.7583C54.7476 45.5327 55.1128 45.2266 55.3491 44.8398C55.5854 44.4531 55.7036 44.0234 55.7036 43.5508Z" fill="#657582"/>
<path d="M74.959 26.2773V49.7383H69.7222V26.2773H74.959ZM82.0972 26.2773V30.354H62.729V26.2773H82.0972Z" fill="#657582"/>
<path d="M92.603 30.7407L86.5444 49.7383H80.937L89.6221 26.2773H93.167L92.603 30.7407ZM97.6304 49.7383L91.5557 30.7407L90.9272 26.2773H94.5205L103.238 49.7383H97.6304ZM97.3726 41.0049V45.0654H85.1426V41.0049H97.3726Z" fill="#657582"/>
<path d="M124.077 67.711C130.757 75.3255 139.506 78.3659 150.143 74.0186C155.853 71.6427 161.296 68.6674 166.379 65.1426C156.737 68.7946 146.521 70.697 136.211 70.7604C131.965 70.8717 127.769 69.8203 124.077 67.7201" fill="#657582"/>
<path d="M180.065 8.9491C173.404 0.599456 163.874 -2.67687 151.332 2.4509C147.303 4.08863 143.365 5.93965 139.533 7.99613C147.923 5.97242 156.533 4.99994 165.163 5.10101C171.334 5.10101 176.263 6.48051 180.083 8.9491" fill="#657582"/>
<path d="M179.152 7.85523C175.331 5.38664 170.403 4.00714 164.231 4.00714C155.601 3.90606 146.992 4.87855 138.602 6.90226C124.67 10.5325 112.836 18.256 111.529 33.603C110.167 49.5581 113.516 62.8721 123.164 68.617C126.856 70.7173 131.052 71.7686 135.298 71.6574C145.607 71.5969 155.823 69.6975 165.466 66.0486C177.636 61.302 187.701 53.4243 189.271 41.9163C191.34 26.7599 188.636 13.9723 179.152 7.86431" fill="#DA2C25"/>
<path d="M179.152 7.85523C175.331 5.38664 170.403 4.00714 164.231 4.00714C155.601 3.90606 146.992 4.87855 138.602 6.90226C124.67 10.5325 112.836 18.256 111.529 33.603C110.167 49.5581 113.516 62.8721 123.164 68.617C126.856 70.7173 131.052 71.7686 135.298 71.6574C145.607 71.5969 155.823 69.6975 165.466 66.0486C177.636 61.302 187.701 53.4243 189.271 41.9163C191.34 26.7599 188.636 13.9723 179.152 7.86431" fill="url(#paint0_linear_465_14679)"/>
<path d="M155.958 51.72C155.185 50.1733 154.332 48.6133 153.398 47.04C152.492 45.44 151.438 43.8133 150.238 42.16C149.865 42.64 149.385 43.3067 148.798 44.16C148.238 45.0133 147.665 45.92 147.078 46.88C146.518 47.84 145.985 48.76 145.478 49.64C144.972 50.52 144.598 51.2133 144.358 51.72H137.238C138.412 49.56 139.772 47.2933 141.318 44.92C142.892 42.5467 144.638 40.0267 146.558 37.36L137.638 24H145.198L150.598 32.64L155.878 24H162.998L154.198 37.44C156.438 40.3467 158.318 43.04 159.838 45.52C161.358 47.9733 162.558 50.04 163.438 51.72H155.958Z" fill="#657582"/>
<path d="M212.104 41.9437H216.879C216.783 43.5148 216.352 44.9096 215.586 46.1281C214.83 47.3465 213.771 48.2977 212.408 48.9818C211.056 49.6658 209.427 50.0078 207.521 50.0078C206.031 50.0078 204.695 49.7513 203.513 49.2383C202.331 48.7146 201.32 47.9664 200.479 46.9938C199.648 46.0212 199.015 44.8455 198.579 43.4667C198.142 42.088 197.924 40.5436 197.924 38.8335V37.2142C197.924 35.5041 198.147 33.9597 198.595 32.581C199.052 31.1915 199.702 30.0105 200.543 29.0379C201.394 28.0653 202.411 27.3171 203.593 26.7934C204.775 26.2697 206.095 26.0078 207.553 26.0078C209.491 26.0078 211.125 26.3605 212.456 27.0659C213.797 27.7713 214.835 28.744 215.57 29.9838C216.315 31.2236 216.762 32.6344 216.911 34.2162H212.12C212.067 33.2757 211.881 32.4794 211.561 31.8275C211.242 31.1648 210.758 30.6678 210.108 30.3365C209.47 29.9945 208.618 29.8234 207.553 29.8234C206.755 29.8234 206.057 29.9731 205.461 30.2723C204.865 30.5716 204.365 31.0258 203.96 31.6351C203.556 32.2443 203.252 33.0138 203.05 33.9437C202.858 34.8629 202.762 35.9423 202.762 37.1822V38.8335C202.762 40.0412 202.853 41.1047 203.034 42.0238C203.215 42.9323 203.492 43.7019 203.864 44.3325C204.248 44.9524 204.737 45.4226 205.334 45.7433C205.94 46.0532 206.67 46.2082 207.521 46.2082C208.522 46.2082 209.347 46.0479 209.997 45.7273C210.646 45.4066 211.141 44.931 211.482 44.3004C211.833 43.6698 212.041 42.8842 212.104 41.9437Z" fill="#657582"/>
<path d="M229.479 30.3365L223.155 49.6872H218.061L226.7 26.3445H229.942L229.479 30.3365ZM234.733 49.6872L228.393 30.3365L227.882 26.3445H231.156L239.843 49.6872H234.733ZM234.445 40.9978V44.7653H222.165V40.9978H234.445Z" fill="#657582"/>
<path d="M254.103 43.579C254.103 43.1621 254.039 42.788 253.912 42.4567C253.795 42.1147 253.571 41.8047 253.241 41.5269C252.911 41.2383 252.448 40.955 251.852 40.6772C251.256 40.3993 250.484 40.1107 249.536 39.8114C248.482 39.4694 247.481 39.0846 246.534 38.6571C245.597 38.2296 244.767 37.7326 244.043 37.1661C243.329 36.589 242.765 35.921 242.35 35.1621C241.945 34.4033 241.743 33.5215 241.743 32.5168C241.743 31.5442 241.956 30.6625 242.382 29.8715C242.808 29.0699 243.404 28.3859 244.171 27.8194C244.937 27.2423 245.842 26.7987 246.885 26.4888C247.939 26.1788 249.094 26.0238 250.351 26.0238C252.065 26.0238 253.56 26.3338 254.838 26.9537C256.115 27.5736 257.106 28.4233 257.808 29.5028C258.521 30.5823 258.878 31.8168 258.878 33.2062H254.119C254.119 32.5222 253.976 31.9236 253.688 31.4106C253.411 30.8869 252.986 30.4754 252.411 30.1761C251.846 29.8769 251.133 29.7273 250.271 29.7273C249.44 29.7273 248.748 29.8555 248.195 30.112C247.641 30.3578 247.226 30.6945 246.949 31.122C246.672 31.5389 246.534 32.0091 246.534 32.5329C246.534 32.9283 246.63 33.2864 246.821 33.607C247.024 33.9277 247.322 34.2269 247.716 34.5048C248.11 34.7827 248.594 35.0446 249.169 35.2904C249.744 35.5362 250.409 35.7767 251.165 36.0118C252.432 36.3966 253.544 36.8295 254.503 37.3104C255.471 37.7914 256.28 38.3311 256.93 38.9297C257.579 39.5282 258.069 40.2069 258.399 40.9657C258.729 41.7246 258.894 42.585 258.894 43.5469C258.894 44.5623 258.697 45.4707 258.303 46.2723C257.909 47.0739 257.34 47.7526 256.595 48.3084C255.849 48.8642 254.96 49.2864 253.928 49.5749C252.895 49.8635 251.74 50.0078 250.462 50.0078C249.313 50.0078 248.179 49.8582 247.061 49.5589C245.943 49.249 244.926 48.784 244.011 48.1641C243.106 47.5442 242.382 46.7533 241.839 45.7914C241.296 44.8295 241.025 43.6912 241.025 42.3766H245.831C245.831 43.1033 245.943 43.7179 246.167 44.2202C246.39 44.7226 246.704 45.1287 247.109 45.4387C247.524 45.7486 248.014 45.9731 248.578 46.112C249.153 46.251 249.781 46.3204 250.462 46.3204C251.293 46.3204 251.974 46.2029 252.506 45.9677C253.049 45.7326 253.449 45.4066 253.704 44.9898C253.97 44.5729 254.103 44.1027 254.103 43.579Z" fill="#657582"/>
<path d="M267.246 26.3445V49.6872H262.471V26.3445H267.246Z" fill="#657582"/>
<path d="M290.657 26.3445V49.6872H285.866L276.524 34.0399V49.6872H271.733V26.3445H276.524L285.882 42.0078V26.3445H290.657Z" fill="#657582"/>
<path d="M313.924 37.4707V38.577C313.924 40.3512 313.684 41.9437 313.205 43.3545C312.726 44.7653 312.05 45.9677 311.177 46.9617C310.304 47.945 309.261 48.6985 308.047 49.2222C306.844 49.746 305.508 50.0078 304.039 50.0078C302.58 50.0078 301.244 49.746 300.031 49.2222C298.828 48.6985 297.784 47.945 296.901 46.9617C296.017 45.9677 295.33 44.7653 294.841 43.3545C294.362 41.9437 294.122 40.3512 294.122 38.577V37.4707C294.122 35.6858 294.362 34.0933 294.841 32.6932C295.32 31.2824 295.996 30.08 296.869 29.086C297.752 28.092 298.796 27.3331 299.999 26.8094C301.212 26.2857 302.548 26.0238 304.007 26.0238C305.476 26.0238 306.812 26.2857 308.015 26.8094C309.229 27.3331 310.272 28.092 311.145 29.086C312.029 30.08 312.71 31.2824 313.189 32.6932C313.679 34.0933 313.924 35.6858 313.924 37.4707ZM309.085 38.577V37.4387C309.085 36.1989 308.973 35.1087 308.75 34.1681C308.526 33.2276 308.196 32.4367 307.76 31.7954C307.323 31.1541 306.791 30.6731 306.163 30.3525C305.535 30.0212 304.816 29.8555 304.007 29.8555C303.198 29.8555 302.479 30.0212 301.851 30.3525C301.234 30.6731 300.707 31.1541 300.27 31.7954C299.844 32.4367 299.52 33.2276 299.296 34.1681C299.073 35.1087 298.961 36.1989 298.961 37.4387V38.577C298.961 39.8061 299.073 40.8963 299.296 41.8475C299.52 42.788 299.85 43.5843 300.286 44.2363C300.723 44.8776 301.255 45.3639 301.883 45.6952C302.511 46.0265 303.23 46.1922 304.039 46.1922C304.848 46.1922 305.567 46.0265 306.195 45.6952C306.823 45.3639 307.35 44.8776 307.776 44.2363C308.202 43.5843 308.526 42.788 308.75 41.8475C308.973 40.8963 309.085 39.8061 309.085 38.577Z" fill="#657582"/>
<defs>
<linearGradient id="paint0_linear_465_14679" x1="150.582" y1="4" x2="150.582" y2="71.6654" gradientUnits="userSpaceOnUse">
<stop stop-color="#FF1A44"/>
<stop offset="1" stop-color="#871628"/>
</linearGradient>
</defs>
</svg>
